<svg width="390" height="844" viewBox="0 0 390 844" fill="none" xmlns="http://www.w3.org/2000/svg">
<g clip-path="url(#clip0_1:9)">
<rect width="390" height="844" fill="#264653"/>
<path d="M59.808 453.936V491.952H39.36V386.544H58.224V395.76C63.216 388.464 71.184 384.816 82.128 384.816C92.784 384.816 101.232 388.56 107.472 396.048C113.712 403.536 116.832 412.944 116.832 424.272C116.832 435.6 113.712 445.008 107.472 452.496C101.232 459.984 92.784 463.728 82.128 463.728C77.136 463.728 72.672 462.816 68.736 460.992C64.896 459.072 61.92 456.72 59.808 453.936ZM64.272 408.864C60.912 412.896 59.232 418.032 59.232 424.272C59.232 430.512 60.912 435.648 64.272 439.68C67.728 443.712 72.24 445.728 77.808 445.728C83.376 445.728 87.84 443.712 91.2 439.68C94.656 435.648 96.384 430.512 96.384 424.272C96.384 418.032 94.656 412.896 91.2 408.864C87.84 404.832 83.376 402.816 77.808 402.816C72.24 402.816 67.728 404.832 64.272 408.864ZM149.918 373.296C147.614 375.6 144.638 376.752 140.99 376.752C137.342 376.752 134.366 375.6 132.062 373.296C129.758 370.992 128.606 368.064 128.606 364.512C128.606 360.96 129.758 358.032 132.062 355.728C134.366 353.328 137.342 352.128 140.99 352.128C144.638 352.128 147.614 353.328 149.918 355.728C152.222 358.032 153.374 360.96 153.374 364.512C153.374 368.064 152.222 370.992 149.918 373.296ZM130.766 462V386.544H151.214V462H130.766ZM175.905 452.496C168.801 444.912 165.249 435.504 165.249 424.272C165.249 413.04 168.801 403.68 175.905 396.192C183.105 388.608 192.177 384.816 203.121 384.816C213.873 384.816 222.321 387.84 228.465 393.888C234.705 399.936 238.257 406.704 239.121 414.192H218.097C217.329 410.928 215.553 408.24 212.769 406.128C209.985 404.016 206.721 402.96 202.977 402.96C197.601 402.96 193.377 404.928 190.305 408.864C187.233 412.704 185.697 417.84 185.697 424.272C185.697 430.704 187.233 435.888 190.305 439.824C193.377 443.664 197.601 445.584 202.977 445.584C206.721 445.584 209.985 444.528 212.769 442.416C215.553 440.304 217.329 437.616 218.097 434.352H239.121C238.257 441.84 234.705 448.608 228.465 454.656C222.321 460.704 213.873 463.728 203.121 463.728C192.177 463.728 183.105 459.984 175.905 452.496ZM271.281 459.408C268.689 461.904 265.377 463.152 261.345 463.152C257.313 463.152 254.001 461.904 251.409 459.408C248.817 456.816 247.521 453.504 247.521 449.472C247.521 445.536 248.817 442.272 251.409 439.68C254.001 436.992 257.313 435.648 261.345 435.648C265.281 435.648 268.545 436.992 271.137 439.68C273.825 442.272 275.169 445.536 275.169 449.472C275.169 453.504 273.873 456.816 271.281 459.408Z" fill="#88F6E9"/>
<path d="M39.62 548.04C39.62 556.464 45.02 561.432 52.544 561.432C60.104 561.432 63.344 556.536 63.92 553.116V552.576H60.788C60.356 555.132 58.268 558.768 52.544 558.768C46.82 558.768 42.896 554.772 42.896 548.04C42.896 541.308 46.82 537.312 52.544 537.312C58.268 537.312 60.284 540.876 60.572 543.504H63.704V542.964C63.236 539.292 60.032 534.648 52.544 534.648C45.02 534.648 39.62 539.616 39.62 548.04ZM66.8284 551.82C66.8284 557.652 70.4644 561.432 75.9724 561.432C81.4804 561.432 85.1164 557.652 85.1164 551.82C85.1164 546.024 81.4804 542.244 75.9724 542.244C70.4644 542.244 66.8284 546.024 66.8284 551.82ZM69.9964 551.82C69.9964 547.284 72.4084 544.692 75.9724 544.692C79.5364 544.692 81.9124 547.284 81.9124 551.82C81.9124 556.392 79.5364 558.984 75.9724 558.984C72.4084 558.984 69.9964 556.392 69.9964 551.82ZM89.2491 542.676V561H92.4171V550.74C92.4171 546.6 95.0451 544.728 98.0691 544.728C100.697 544.728 102.533 546.06 102.533 549.156V561H105.701V548.832C105.701 544.548 102.893 542.244 98.8251 542.244C94.9371 542.244 93.3531 544.188 92.6691 545.376H92.3091V542.676H89.2491ZM108.36 542.676V545.052H112.644V556.5C112.644 559.488 114.336 561 117.36 561H120.996V558.552H116.1L115.812 558.264V545.052H120.672V542.676H115.812V537.024H115.272L112.644 539.004V542.676H108.36ZM123.934 548.544H126.994C127.318 545.988 129.154 544.62 132.106 544.62C135.022 544.62 136.786 545.988 136.786 548.976V550.092L129.946 550.74C126.202 551.1 123.43 552.72 123.43 556.14C123.43 559.416 126.202 561.396 130.126 561.396C133.942 561.396 135.706 559.596 136.498 558.3H136.858V561H139.918V549.048C139.918 544.584 136.75 542.244 132.178 542.244C127.606 542.244 124.546 544.584 123.934 548.004V548.544ZM126.598 555.996C126.598 554.16 128.002 553.26 130.378 553.044L136.786 552.432V552.936C136.786 557.076 134.014 559.02 130.666 559.02C128.182 559.02 126.598 557.832 126.598 555.996ZM161.89 568.2V542.676H159.694L158.938 545.412H158.578C157.678 544.044 155.842 542.244 152.314 542.244C147.562 542.244 143.926 545.772 143.926 551.82C143.926 557.868 147.562 561.396 152.314 561.396C155.734 561.396 157.57 559.668 158.362 558.48H158.722V568.2H161.89ZM158.866 551.82C158.866 556.392 156.418 558.948 152.998 558.948C149.578 558.948 147.094 556.392 147.094 551.82C147.094 547.284 149.578 544.692 152.998 544.692C156.418 544.692 158.866 547.284 158.866 551.82ZM40.628 584.452C40.628 588.628 43.832 590.248 48.44 591.292L51.176 591.904C55.064 592.768 58.196 593.632 58.196 597.304C58.196 600.976 54.848 602.74 50.384 602.74C45.848 602.74 41.96 600.976 41.312 596.008H39.548V596.548C40.376 601.84 44.624 604.396 50.384 604.396C56.144 604.396 59.996 601.84 59.996 597.232C59.996 592.696 56.54 591.328 51.86 590.284L49.124 589.672C45.164 588.772 42.428 587.764 42.428 584.524C42.428 581.212 45.74 579.34 50.168 579.34C54.596 579.34 58.16 581.212 58.448 585.712H60.212V585.172C59.708 580.276 55.82 577.684 50.168 577.684C44.516 577.684 40.628 580.204 40.628 584.452ZM63.7749 595C63.7749 600.4 66.8709 604.432 72.2709 604.432C77.6709 604.432 80.7669 600.4 80.7669 595C80.7669 589.6 77.6709 585.568 72.2709 585.568C66.8709 585.568 63.7749 589.6 63.7749 595ZM65.5029 595C65.5029 589.96 68.2389 587.08 72.2709 587.08C76.3029 587.08 79.0389 589.96 79.0389 595C79.0389 600.04 76.3029 602.92 72.2709 602.92C68.2389 602.92 65.5029 600.04 65.5029 595ZM85.4598 578.08V604H87.1878V578.08H85.4598ZM108.137 604V586H106.409V596.044C106.409 600.652 103.349 602.92 99.8927 602.92C96.8687 602.92 94.6727 601.444 94.6727 597.844V586H92.9447V598.06C92.9447 602.236 95.7527 604.432 99.6767 604.432C103.637 604.432 105.329 602.38 106.049 601.048H106.409V604H108.137ZM111.666 586V587.512H116.058V599.968C116.058 602.704 117.498 604 120.234 604H123.258V602.416H118.074L117.786 602.128V587.512H122.826V586H117.786V580.528H117.246L116.058 582.328V586H111.666ZM126.505 579.52V582.4H129.673V579.52H126.505ZM127.225 586V604H128.953V586H127.225ZM133.63 595C133.63 600.4 136.726 604.432 142.126 604.432C147.526 604.432 150.622 600.4 150.622 595C150.622 589.6 147.526 585.568 142.126 585.568C136.726 585.568 133.63 589.6 133.63 595ZM135.358 595C135.358 589.96 138.094 587.08 142.126 587.08C146.158 587.08 148.894 589.96 148.894 595C148.894 600.04 146.158 602.92 142.126 602.92C138.094 602.92 135.358 600.04 135.358 595ZM155.315 586V604H157.043V593.956C157.043 589.348 160.103 587.08 163.559 587.08C166.583 587.08 168.779 588.556 168.779 592.156V604H170.507V591.94C170.507 587.764 167.699 585.568 163.775 585.568C159.815 585.568 158.123 587.62 157.403 588.952H157.043V586H155.315ZM175.476 590.608C175.476 593.632 177.78 594.964 181.02 595.504L183.576 595.936C186.42 596.404 188.292 597.124 188.292 599.284C188.292 601.444 186.42 602.92 182.82 602.92C179.22 602.92 176.808 601.444 176.412 598.204H174.756V598.744C175.296 602.38 178.284 604.432 182.82 604.432C187.356 604.432 190.02 602.38 190.02 599.212C190.02 596.044 187.536 594.928 183.936 594.316L181.38 593.884C179.004 593.488 177.204 592.696 177.204 590.536C177.204 588.376 179.22 587.08 182.532 587.08C185.844 587.08 188.04 588.376 188.22 591.256H189.876V590.716C189.444 587.404 186.78 585.568 182.532 585.568C178.284 585.568 175.476 587.404 175.476 590.608Z" fill="#88F6E9"/>
</g>
<defs>
<clipPath id="clip0_1:9">
<rect width="390" height="844" fill="white"/>
</clipPath>
</defs>
</svg>
